<?xml version="1.0" encoding="UTF-8"?>
<svg width="32px" height="32px" viewBox="0 0 32 32" version="1.1" xmlns="http://www.w3.org/2000/svg" xmlns:xlink="http://www.w3.org/1999/xlink">
    <title>dribbble</title>
    <g id="Snacks-Portfolio" stroke="none" stroke-width="1" fill="none" fill-rule="evenodd">
        <g id="Link-Graphics" transform="translate(-124, -102)" fill="#444444">
            <path d="M150.579,109.378 C150.291,109.768 148.001,112.704 142.948,114.767 C143.266,115.417 143.571,116.08 143.854,116.746 C143.955,116.982 144.053,117.217 144.149,117.451 C148.696,116.88 153.215,117.796 153.665,117.891 C153.635,114.666 152.482,111.704 150.579,109.378 M136.798,104.734 C137.175,105.24 139.658,108.62 141.897,112.734 C146.757,110.913 148.814,108.148 149.06,107.798 C146.646,105.656 143.473,104.354 140,104.354 C138.898,104.354 137.825,104.486 136.798,104.734 M126.623,115.221 C127.234,115.229 132.864,115.254 139.257,113.556 C136.993,109.531 134.55,106.146 134.19,105.652 C130.367,107.456 127.509,110.98 126.623,115.221 M129.847,127.158 C130.157,126.628 133.907,120.418 140.956,118.14 C141.134,118.082 141.314,118.028 141.494,117.977 C141.151,117.201 140.778,116.424 140.386,115.658 C133.561,117.7 126.939,117.615 126.341,117.603 C126.337,117.742 126.334,117.881 126.334,118.02 C126.334,121.53 127.664,124.735 129.847,127.158 M145.339,130.601 C145.135,129.402 144.342,125.223 142.423,120.237 C142.393,120.247 142.363,120.257 142.333,120.267 C134.625,122.953 131.858,128.299 131.612,128.802 C133.929,130.609 136.841,131.687 140,131.687 C141.893,131.687 143.698,131.3 145.339,130.601 M153.494,120.19 C153.026,120.042 149.264,118.92 144.981,119.605 C146.769,124.517 147.496,128.518 147.636,129.349 C150.702,127.276 152.885,123.992 153.494,120.19 M140,134 C131.178,134 124,126.822 124,118 C124,109.177 131.178,102 140,102 C148.823,102 156,109.177 156,118 C156,126.822 148.823,134 140,134" id="dribbble"></path>
        </g>
    </g>
</svg>