<?xml version="1.0" encoding="UTF-8"?>
<svg width="121px" height="120px" viewBox="0 0 121 120" version="1.1" xmlns="http://www.w3.org/2000/svg" xmlns:xlink="http://www.w3.org/1999/xlink">
    <title>Fill 1</title>
    <g id="Snacks-Portfolio" stroke="none" stroke-width="1" fill="none" fill-rule="evenodd">
        <g id="Link-Graphics" transform="translate(-328, -599)" fill="#3B3B3C">
            <path d="M388.499793,631.33253 L350.178766,599 L365.751101,647.763295 L328,674.687813 L374.349175,674.687813 L388.499793,719 L402.650825,674.687813 L449,674.687813 L411.249313,647.763295 L426.821234,599 L388.499793,631.33253 Z M392,634.960208 L416,615 L406.280623,645 L392,634.960208 Z M361,615 L385,634.960208 L370.719208,645 L361,615 Z M375.316205,660.645263 L372,650.029424 L388.499796,638 L405,650.029424 L401.139258,662.388809 L398.761501,670 L378.238499,670 L375.316205,660.645263 Z M406.439921,662.289742 L409.379373,653 L433,670 L404,670 L406.439921,662.289742 Z M367.620627,653 L370.560079,662.289742 L373,670 L344,670 L367.620627,653 Z M379,675 L397,675 L388,702 L379,675 Z" id="Fill-1"></path>
        </g>
    </g>
</svg>