<?xml version="1.0" encoding="UTF-8"?>
<svg width="293px" height="291px" viewBox="0 0 293 291" version="1.1" xmlns="http://www.w3.org/2000/svg" xmlns:xlink="http://www.w3.org/1999/xlink">
    <title>Fill 1</title>
    <g id="Resources" stroke="none" stroke-width="1" fill="none" fill-rule="evenodd">
        <g id="Artboard-1" transform="translate(-416, -11)" fill="#3B3B3C">
            <path d="M562.386,89.356 L469.664,11 L507.343,129.175 L416,194.425 L528.147,194.425 L562.386,301.813 L596.626,194.425 L708.773,194.425 L617.431,129.175 L655.109,11 L562.386,89.356 Z M572.522,97.096 L630.101,48.439 L606.783,121.57 L572.522,97.096 Z M494.672,48.439 L552.252,97.096 L517.99,121.57 L494.672,48.439 Z M530.089,159.517 L521.965,134.036 L562.386,105.162 L602.808,134.036 L593.35,163.702 L587.525,181.971 L537.248,181.971 L530.089,159.517 Z M606.429,163.68 L613.455,141.642 L669.914,181.971 L600.597,181.971 L606.429,163.68 Z M511.318,141.642 L518.344,163.68 L524.176,181.971 L454.859,181.971 L511.318,141.642 Z M541.218,194.425 L583.554,194.425 L562.386,260.816 L541.218,194.425 Z" id="Fill-1"></path>
        </g>
    </g>
</svg>