<?xml version="1.0" encoding="UTF-8"?>
<svg width="32px" height="32px" viewBox="0 0 32 32" version="1.1" xmlns="http://www.w3.org/2000/svg" xmlns:xlink="http://www.w3.org/1999/xlink">
    <title>Group</title>
    <g id="Snacks-Portfolio" stroke="none" stroke-width="1" fill="none" fill-rule="evenodd">
        <g id="Link-Graphics" transform="translate(-78, -290)" fill="#38383F">
            <g id="Group" transform="translate(78, 290)">
                <rect id="Rectangle" x="0" y="0" width="32" height="4"></rect>
                <rect id="Rectangle" x="0" y="28" width="32" height="4"></rect>
                <g id="moji" transform="translate(1.7, 10.416)" fill-rule="nonzero">
                    <path d="M0,10.584 L0,3.178 L2.268,3.178 L2.268,3.654 C2.79066667,3.24333333 3.40666667,3.038 4.116,3.038 C4.58266667,3.038 5.00266667,3.12666667 5.376,3.304 C5.74933333,3.48133333 6.062,3.73333333 6.314,4.06 C6.61266667,3.73333333 6.96733333,3.48133333 7.378,3.304 C7.78866667,3.12666667 8.23666667,3.038 8.722,3.038 C9.282,3.038 9.77666667,3.164 10.206,3.416 C10.6353333,3.668 10.9736667,4.018 11.221,4.466 C11.4683333,4.914 11.592,5.432 11.592,6.02 L11.592,10.584 L9.324,10.584 L9.324,6.328 C9.324,5.91733333 9.21433333,5.59066667 8.995,5.348 C8.77566667,5.10533333 8.484,4.984 8.12,4.984 C7.868,4.984 7.63933333,5.03066667 7.434,5.124 C7.22866667,5.21733333 7.05133333,5.35733333 6.902,5.544 C6.91133333,5.61866667 6.91833333,5.69566667 6.923,5.775 C6.92766667,5.85433333 6.93,5.936 6.93,6.02 L6.93,10.584 L4.662,10.584 L4.662,6.328 C4.662,5.91733333 4.55233333,5.59066667 4.333,5.348 C4.11366667,5.10533333 3.822,4.984 3.458,4.984 C3.206,4.984 2.97966667,5.02833333 2.779,5.117 C2.57833333,5.20566667 2.408,5.33866667 2.268,5.516 L2.268,10.584 L0,10.584 Z" id="Path"></path>
                    <path d="M16.618,10.724 C15.862,10.724 15.1806667,10.5536667 14.574,10.213 C13.9673333,9.87233333 13.4866667,9.41266667 13.132,8.834 C12.7773333,8.25533333 12.6,7.60666667 12.6,6.888 C12.6,6.166125 12.7765313,5.51443229 13.1295938,4.93292187 C13.4826563,4.35141146 13.9633229,3.89021354 14.5715938,3.54932812 C15.1798646,3.20844271 15.862,3.038 16.618,3.038 C17.3723958,3.038 18.053,3.20844271 18.6598125,3.54932812 C19.266625,3.89021354 19.7476927,4.35141146 20.1030156,4.93292187 C20.4583385,5.51443229 20.636,6.166125 20.636,6.888 C20.636,7.60666667 20.4586667,8.25533333 20.104,8.834 C19.7493333,9.41266667 19.2684115,9.87233333 18.6612344,10.213 C18.0540573,10.5536667 17.3729792,10.724 16.618,10.724 Z M16.618,8.764 C16.9633333,8.764 17.2716615,8.68051042 17.5429844,8.51353125 C17.8143073,8.34655208 18.028974,8.12098437 18.1869844,7.83682812 C18.3449948,7.55267187 18.424,7.23486458 18.424,6.88340625 C18.424,6.53180208 18.3443021,6.21344792 18.1849063,5.92834375 C18.0255104,5.64323958 17.8089479,5.41690625 17.5352188,5.24934375 C17.2614896,5.08178125 16.9561875,4.998 16.6193125,4.998 C16.2824375,4.998 15.9768802,5.08178125 15.7026406,5.24934375 C15.428401,5.41690625 15.211401,5.64323958 15.0516406,5.92834375 C14.8918802,6.21344792 14.812,6.53180208 14.812,6.88340625 C14.812,7.23486458 14.8917708,7.55267187 15.0513125,7.83682812 C15.2108542,8.12098437 15.4275625,8.34655208 15.7014375,8.51353125 C15.9753125,8.68051042 16.2808333,8.764 16.618,8.764 Z" id="Shape"></path>
                    <path d="M22.834,2.492 C22.4886667,2.492 22.1946667,2.37066667 21.952,2.128 C21.7093333,1.88533333 21.588,1.59133333 21.588,1.246 C21.588,0.900666667 21.7093333,0.606666667 21.952,0.364 C22.1946667,0.121333333 22.4886667,-5.68434189e-14 22.834,-5.68434189e-14 C23.1793333,-5.68434189e-14 23.4733333,0.121333333 23.716,0.364 C23.9586667,0.606666667 24.08,0.900666667 24.08,1.246 C24.08,1.59133333 23.9586667,1.88533333 23.716,2.128 C23.4733333,2.37066667 23.1793333,2.492 22.834,2.492 Z M21.378,13.58 C21.182,13.58 20.9766667,13.566 20.762,13.538 C20.5473333,13.51 20.3746667,13.4773333 20.244,13.44 L20.244,11.732 C20.4306667,11.7693333 20.65,11.788 20.902,11.788 C21.1726667,11.788 21.3733333,11.7343333 21.504,11.627 C21.6346667,11.5196667 21.7,11.3493333 21.7,11.116 L21.7,3.178 L23.968,3.178 L23.968,11.242 C23.968,11.9793333 23.744,12.5533333 23.296,12.964 C22.848,13.3746667 22.2086667,13.58 21.378,13.58 Z" id="Shape"></path>
                    <path d="M25.368,10.584 L25.368,3.178 L27.636,3.178 L27.636,10.584 L25.368,10.584 Z M26.502,2.492 C26.1522917,2.492 25.8571979,2.37176042 25.6167188,2.13128125 C25.3762396,1.89080208 25.256,1.59570833 25.256,1.246 C25.256,0.896291667 25.3762396,0.601197917 25.6167188,0.36071875 C25.8571979,0.120239583 26.1522917,-5.68434189e-14 26.502,-5.68434189e-14 C26.8473333,-5.68434189e-14 27.1413333,0.120239583 27.384,0.36071875 C27.6266667,0.601197917 27.748,0.896291667 27.748,1.246 C27.748,1.59570833 27.6266667,1.89080208 27.384,2.13128125 C27.1413333,2.37176042 26.8473333,2.492 26.502,2.492 Z" id="Shape"></path>
                </g>
            </g>
        </g>
    </g>
</svg>