<?xml version="1.0" encoding="UTF-8"?>
<svg width="180px" height="125px" viewBox="0 0 180 125" version="1.1" xmlns="http://www.w3.org/2000/svg" xmlns:xlink="http://www.w3.org/1999/xlink">
    <!-- Generator: Sketch 59.1 (86144) - https://sketch.com -->
    <title>topteeth</title>
    <desc>Created with Sketch.</desc>
    <g id="2018---snacks" stroke="none" stroke-width="1" fill="none" fill-rule="evenodd">
        <g id="10.00-landing-web" transform="translate(-206.000000, -248.000000)">
            <g id="Group" transform="translate(206.000000, 248.000000)">
                <g id="topteeth" transform="translate(-19.000000, -12.000000)">
                    <path d="M70.0428109,112.008947 C70.8317016,114.464821 72.1128623,116.250083 73.8862931,117.364733 C75.6597239,118.479384 82.030631,118.874749 92.9990144,118.550828 C101.31856,117.786609 106.187571,116.71453 107.606048,115.33459 C109.024525,113.95465 109.849623,112.968955 110.081341,112.377505 C110.634949,113.427131 111.182977,114.12224 111.725425,114.46283 C112.539096,114.973717 115.581194,116.174553 118.017831,116.174553 C120.454468,116.174553 135.462867,115.424697 138.017489,114.46283 C140.57211,113.500964 144.339065,111.094096 144.339065,110.278619 C144.339065,109.734968 144.535706,108.6661 144.928987,107.072014 C145.456783,108.082746 146.220405,108.869863 147.219854,109.433365 C148.719026,110.278619 154.731534,111.248088 155.512968,111.248088 C156.294402,111.248088 162.168834,111.123873 162.974634,110.278619 C163.511834,109.715117 164.438896,108.646248 165.755819,107.072014 L168.027876,109.433365 C168.612954,119.188455 169.280251,125.070776 170.029766,127.080328 C171.154039,130.094656 171.926068,132.19573 172.867806,133.3974 C173.809545,134.599069 177.050272,134.110782 178.815765,131.857055 C180.581258,129.603328 189.912722,105.740112 189.912722,103.882 C189.912722,102.023887 189.904172,105.997049 191.71968,107.072014 C193.535188,108.14698 196.23387,108.486443 197.520158,108.486443 C198.806446,108.486443 201.548731,106.179116 201.548731,106.179116 C201.548731,106.179116 202.7414,104.432457 205.126739,100.939138 C206.239043,102.111518 207.521768,102.697708 208.974916,102.697708 C211.154637,102.697708 212.608497,102.697708 213.554938,102.697708 C214.501379,102.697708 215.738506,99.5689499 215.738506,99.5689499 C215.738506,99.5689499 216.159004,97.7262934 217,94.0409806 L207.063266,77.7235075 C205.150527,47.9982242 203.312348,32.8394482 201.548731,32.2471796 C200.567351,31.9176068 136.85242,31.9176068 10.4039381,32.2471796 C5.64660053,41.5581035 0,99.180567 0,100.939138 C0,102.697708 1.87728914,104.232828 1.87728914,105.205972 C1.87728914,106.179116 4.18755397,109.433365 5.6335097,109.433365 C7.07946543,109.433365 11.1988442,107.687675 12.1688735,107.687675 C13.1389028,107.687675 14.0647893,110.487229 14.7929604,111.248088 C15.5211316,112.008947 16.8554319,115.33459 18.9642719,115.33459 C21.0731119,115.33459 26.1499077,113.81074 26.1499077,112.909844 C26.1499077,112.008947 28.199767,116.178639 28.9590978,117.364733 C29.7184286,118.550828 35.9997044,130.38639 37.5330282,132.418689 C39.0663519,134.450987 42.2863323,137.311826 44.2727594,136.801811 C46.2591866,136.291796 46.7386407,127.120847 46.7386407,126.101293 C46.7386407,125.081739 46.0631441,111.123873 46.7386407,110.278619 C47.4141372,109.433365 48.9253798,112.486413 50.6922056,113.474622 C52.4590315,114.46283 52.5855248,114.976422 57.9160491,115.33459 C61.469732,115.573369 65.5119859,114.464821 70.0428109,112.008947 Z" id="Path-2" fill="#38383F"></path>
                    <path d="M199,3 C201.775893,57.1997153 201.775893,84.7403326 199,85.6218518 C193.521008,87.3617739 187.690422,76.0292358 181,76.7727947 C173.712589,77.5827017 165.780512,90.279733 165.780512,87.3520007 C165.780512,68.8241855 150.492127,71.2437189 148.727991,71.8170669 C141.526536,74.1575558 145.797939,95.7211488 144.394679,95.7211488 C142.991419,95.7211488 139.544966,71.8170669 131.024328,71.8170669 C122.503691,71.8170669 111.516728,69.3895471 109,79.4199335 C106.483272,89.45032 108.785529,93.7203629 107.819912,95.7211488 C106.854295,97.7219346 105.435284,76.4125534 101.187869,73.6437357 C96.9404543,70.8749181 81.7249496,70.8749181 79.1275388,73.6437357 C76.530128,76.4125534 70.4520006,94.3857141 70.4520006,98.9481787 C70.4520006,103.510643 65.3798447,76.7727947 60.1740918,76.7727947 C57.5696289,76.7727947 52.2826013,74.1794745 49.7732962,77.857513 C47.267048,81.5310709 47.5382112,91.4755136 45.4466653,92.2607324 C41.2610225,93.8321277 38.7930735,82.0824201 31.9113509,83.0216641 C25.0296284,83.9609081 19,98.9481787 19,89.542985 C19.4605118,84.9239033 19.4605118,56.0762417 19,3 C38.0604152,1.12952852 51.6545299,0.330150833 59.7823441,0.601866942 C79.4411993,1.2590704 95.453722,5.58767213 107.819912,5.58767213 C120.116179,5.58767213 136.313992,1.262776 156.41335,0.612983736 C164.84674,0.34034063 179.04229,1.13601272 199,3 Z" id="Path-3" fill="#474750"></path>
                    <path d="M128.974136,115.603276 C127.988142,113.529654 132.982927,107.033919 133.66784,103.704433 C134.352753,100.374947 136.758902,90.0907851 136.758902,88.1460816 C136.758902,86.2013782 139.87762,112.486462 138.756989,114.009867 C137.706674,115.219556 128.443505,115.603276 128.974136,115.603276 Z" id="Path" fill="#474750"></path>
                    <path d="M41.6068851,131.826142 C39.8217686,132.69059 41,120.236201 41,117.537271 C41,114.83834 40.4613042,105.424984 39.8329485,103.339936 C39.2045927,101.254888 38.6669417,98.0433282 39.2499451,98.0433282 C39.8329485,98.0433282 42.30347,97.3615475 42.8809341,100.447061 C43.4583983,103.532574 42.8809341,113.57651 42.8809341,115.541679 C42.8809341,117.506849 43.3920015,130.961694 41.6068851,131.826142 Z" id="Path-4" fill="#474750"></path>
                    <path d="M81.8114647,116.591894 C80.1791944,108.452857 79.6500258,102.361429 80.2239588,98.3176113 C81.0848585,92.2518849 82.8213747,86.9847991 82.8213747,86.1265418 C82.8213747,85.2682845 85.8465628,78.9151782 85.8465628,80.2190054 C85.8465628,81.5228327 85.2034571,97.6860747 85.2034571,100.180304 C85.2034571,102.674533 82.8213747,106.913986 82.8213747,108.71037 C82.8213747,109.90796 82.484738,112.535135 81.8114647,116.591894 Z" id="Path-10" fill="#474750"></path>
                    <path d="M183.891777,119.241633 L186.620126,112.419691 C186.767314,106.240495 184.412461,100.172202 184.412461,97.3825552 C184.412461,94.5929087 184.573927,90.8065424 183.131047,90.8065424 C181.688167,90.8065424 179.979542,102.925604 179.979542,104.985394 C179.979542,107.045184 181.455742,120.937699 183.891777,119.241633 Z" id="Path-12" fill="#474750"></path>
                </g>
            </g>
        </g>
    </g>
</svg>