<?xml version="1.0" encoding="UTF-8"?>
<svg width="180px" height="180px" viewBox="0 0 180 180" version="1.1" xmlns="http://www.w3.org/2000/svg" xmlns:xlink="http://www.w3.org/1999/xlink">
    <title>la croix</title>
    <defs>
        <polygon id="path-1" points="0 0.3368 57.6748 0.3368 57.6748 103.1996 0 103.1996"></polygon>
    </defs>
    <g id="la-croix" stroke="none" stroke-width="1" fill="none" fill-rule="evenodd">
        <g id="Group-9">
            <rect id="Rectangle" x="0" y="0" width="180" height="180"></rect>
            <g id="Group-44" transform="translate(65.000000, 37.000000)">
                <path d="M56.97968,12.8996 C56.79888,11.7068 56.80128,10.6276 56.87968,9.7188 C56.91728,9.286 57.19568,8.9324 57.57568,8.7228 C57.98848,8.4956 58.25728,8.0404 58.21248,7.5268 C58.15648,6.8764 57.56768,6.3996 56.91488,6.3996 L32.83728,6.3996 L8.75968,6.3996 C8.10608,6.3996 7.51888,6.8764 7.46208,7.5268 C7.41728,8.0404 7.68688,8.4956 8.09888,8.7228 C8.47968,8.9324 8.75728,9.286 8.79488,9.7188 C8.87328,10.6276 8.87568,11.7068 8.69568,12.8996 C8.33968,15.25 7.41968,17.098 6.58128,18.3796 C5.92928,19.3772 5.59968,20.5508 5.59968,21.7436 L5.59968,94.6428 C5.59968,96.334 6.26288,97.97 7.48448,99.1404 C8.18208,99.8084 8.92208,100.6396 9.62368,101.6612 C9.90608,102.0724 10.15968,102.4804 10.38608,102.8796 C11.49248,104.8284 13.53008,106.0628 15.77168,106.0628 L32.83728,106.0628 L49.90208,106.0628 C52.14368,106.0628 54.18208,104.8284 55.28928,102.8796 C55.51488,102.4804 55.76768,102.0724 56.05088,101.6612 C56.75328,100.6396 57.49328,99.8084 58.19008,99.1404 C59.41088,97.97 60.07408,96.334 60.07408,94.6428 L60.07408,21.7436 C60.07408,20.5508 59.74528,19.3772 59.09328,18.3796 C58.25488,17.098 57.33408,15.25 56.97968,12.8996" id="Fill-1" fill="#180000" opacity="0.2"></path>
                <path d="M11.77184,102.86288 C9.27664,102.86288 6.94624,101.48768 5.68944,99.27408 C5.46544,98.87808 5.22144,98.48768 4.96384,98.11488 C4.36544,97.24368 3.68224,96.43728 2.93104,95.71808 C1.57664,94.41968 0.79984,92.57008 0.79984,90.64288 L0.79984,17.74368 C0.79984,16.36848 1.18464,15.05328 1.91184,13.94208 C2.95744,12.34288 3.62784,10.60608 3.90464,8.77968 C4.05344,7.79648 4.08464,6.78928 3.99744,5.78848 C3.98064,5.59088 3.79264,5.46768 3.71344,5.42368 C3.00624,5.03408 2.59424,4.26288 2.66464,3.45728 C2.75584,2.41488 3.67584,1.59968 4.75904,1.59968 L52.91504,1.59968 C53.99904,1.59968 54.91984,2.41568 55.00944,3.45808 C55.07984,4.26288 54.66784,5.03488 53.96144,5.42368 C53.88144,5.46768 53.69344,5.59168 53.67664,5.78768 C53.59024,6.79088 53.62224,7.79728 53.77024,8.77968 C54.04624,10.60608 54.71664,12.34288 55.76224,13.94128 C56.48944,15.05328 56.87424,16.36848 56.87424,17.74368 L56.87424,90.64288 C56.87424,92.57008 56.09744,94.41968 54.74384,95.71728 C53.99264,96.43728 53.30864,97.24448 52.71024,98.11408 C52.45184,98.49008 52.20784,98.87968 51.98544,99.27328 C50.72704,101.48768 48.39664,102.86288 45.90224,102.86288 L11.77184,102.86288 Z" id="Fill-3" fill="#F4CD94"></path>
                <g id="Group-7" transform="translate(0.000000, 0.463200)">
                    <mask id="mask-2" fill="white">
                        <use xlink:href="#path-1"></use>
                    </mask>
                    <g id="Clip-6"></g>
                    <path d="M52.9156,0.3364 L28.8372,0.3364 L4.7596,0.3364 C3.2644,0.3364 1.9948,1.4732 1.8676,2.9244 C1.774,4.0028 2.2996,5.0372 3.2164,5.5972 C3.2764,6.4684 3.242,7.3428 3.1132,8.1972 C2.8548,9.9092 2.2252,11.538 1.2428,13.0396 C0.43,14.2828 -0.0004,15.7492 -0.0004,17.2804 L-0.0004,90.1796 C-0.0004,92.3236 0.866,94.3852 2.3772,95.8324 C3.0892,96.514 3.7372,97.2788 4.3044,98.1036 C4.5484,98.458 4.7804,98.8284 4.9948,99.206 C6.3932,101.6692 8.99,103.1996 11.7716,103.1996 L28.8372,103.1996 L45.902,103.1996 C48.6844,103.1996 51.2812,101.6692 52.6804,99.206 C52.894,98.8292 53.126,98.458 53.3692,98.1036 C53.9364,97.2788 54.5852,96.514 55.2972,95.8324 C56.8076,94.3852 57.6748,92.3244 57.6748,90.1796 L57.6748,17.2804 C57.6748,15.7492 57.2452,14.2828 56.4324,13.0404 C55.4492,11.538 54.8204,9.9092 54.5612,8.1972 C54.4324,7.342 54.398,6.4684 54.458,5.5964 C55.3732,5.038 55.8996,4.0028 55.806,2.9252 C55.6804,1.4732 54.41,0.3364 52.9156,0.3364 M52.9156,1.9364 C53.5676,1.9364 54.1564,2.4132 54.2124,3.0636 C54.2572,3.5772 53.9884,4.0324 53.5748,4.2596 C53.1956,4.4692 52.9172,4.8236 52.8796,5.2556 C52.8012,6.1644 52.7988,7.2428 52.9796,8.4364 C53.334,10.786 54.2548,12.6348 55.0932,13.9164 C55.7452,14.914 56.0748,16.0876 56.0748,17.2804 L56.0748,90.1796 C56.0748,91.8708 55.4108,93.5068 54.19,94.6772 C53.4932,95.3452 52.7532,96.1756 52.0508,97.1972 C51.7676,97.6092 51.5148,98.018 51.2892,98.4164 C50.182,100.3652 48.1436,101.5996 45.902,101.5996 L28.8372,101.5996 L11.7716,101.5996 C9.5308,101.5996 7.4924,100.3652 6.386,98.4164 C6.1596,98.018 5.906,97.6092 5.6236,97.1972 C4.922,96.1756 4.1812,95.3452 3.4844,94.6772 C2.2636,93.5068 1.5996,91.8708 1.5996,90.1796 L1.5996,17.2804 C1.5996,16.0876 1.9292,14.914 2.5812,13.9164 C3.4204,12.6348 4.3404,10.786 4.6956,8.4364 C4.8748,7.2428 4.8732,6.1644 4.7948,5.2556 C4.7572,4.8236 4.4796,4.4692 4.0988,4.2596 C3.686,4.0324 3.4172,3.5772 3.462,3.0636 C3.5188,2.4132 4.106,1.9364 4.7596,1.9364 L28.8372,1.9364 L52.9156,1.9364" id="Fill-5" fill="#231F20" mask="url(#mask-2)"></path>
                </g>
                <path d="M3.4844,95.14024 C4.1812,95.80824 4.922,96.63864 5.6236,97.66024 C5.906,98.07224 6.1596,98.48104 6.386,98.87944 C7.4924,100.82824 9.5308,102.06264 11.7716,102.06264 L28.8372,102.06264 L45.902,102.06264 C48.1436,102.06264 50.182,100.82824 51.2892,98.87944 C51.5148,98.48104 51.7676,98.07224 52.0508,97.66024 C52.7532,96.63864 53.4932,95.80824 54.19,95.14024 C55.0796,94.28824 55.6684,93.18744 55.9252,91.99944 L1.7492,91.99944 C2.006,93.18744 2.5956,94.28824 3.4844,95.14024" id="Fill-8" fill="#ECDFE6"></path>
                <path d="M5.62344,97.66056 C5.85864,98.25416 6.74984,100.28856 8.98104,101.38696 C10.08424,101.93016 11.11464,102.04696 11.77224,102.06296 L28.83784,102.06296 L45.90264,102.06296 C48.14344,102.06296 50.18184,100.82856 51.28904,98.87896 C51.51464,98.48056 51.76824,98.07256 52.05064,97.66056 C52.75304,96.63896 53.49304,95.80856 54.18984,95.14056 C55.07944,94.28776 55.66904,93.18696 55.92504,91.99976 C53.74424,92.49976 50.15064,93.33096 45.71144,94.38856 C30.12344,98.10296 26.92664,99.17896 21.38984,99.42856 C17.79064,99.59016 12.36664,99.43976 5.62344,97.66056" id="Fill-10" fill="#C9BFC5"></path>
                <path d="M52.96168,4.98944 L4.71288,4.98944 C3.99768,4.98944 3.41768,4.40944 3.41768,3.69424 C3.41768,2.97904 3.99768,2.39984 4.71288,2.39984 L52.96168,2.39984 C53.67688,2.39984 54.25608,2.97904 54.25608,3.69424 C54.25608,4.40944 53.67688,4.98944 52.96168,4.98944" id="Fill-12" fill="#ECDFE6"></path>
                <path d="M52.97968,8.8996 C49.04448,12.1212 45.55008,13.3564 43.04048,13.8804 C39.91888,14.5308 36.45328,14.4716 36.38528,15.2116 C36.37568,15.3084 36.41648,15.5196 38.27008,16.4308 C40.74368,17.6476 41.97968,18.2548 42.70768,17.9836 C44.22208,17.4196 43.63088,15.09 45.36928,14.2132 C46.54528,13.6188 47.34048,14.4188 49.03008,14.2132 C50.14688,14.0764 51.75488,13.4868 53.56128,11.2604 L52.97968,8.8996 Z" id="Fill-14" fill="#E6434B"></path>
                <path d="M55.09296,14.37928 C53.12736,15.36488 48.08336,18.11608 47.87376,21.21768 C47.85776,21.44568 47.78176,22.56248 48.20976,22.73368 C48.85936,22.99448 50.33696,20.94888 50.56896,20.62808 C51.45216,19.40488 51.40256,18.97848 52.08496,18.55688 C52.98416,18.00088 53.59296,18.42008 54.25616,17.98408 C54.78256,17.63848 55.31376,16.77448 55.09296,14.37928" id="Fill-16" fill="#E6434B"></path>
                <path d="M39.21408,4.98944 C36.27248,8.69424 36.03408,9.91824 36.38528,10.33984 C36.84688,10.89584 38.73888,10.54704 39.21408,9.59504 C39.46368,9.09584 39.18768,8.70064 39.21408,8.10624 C39.25008,7.31424 39.81888,6.23424 42.19408,4.98944 L39.21408,4.98944 Z" id="Fill-18" fill="#E6434B"></path>
                <path d="M30.80856,8.8996 C28.33016,9.5196 27.61656,9.7108 26.87176,10.3404 C26.00776,11.07 25.29256,12.23 25.59496,12.6812 C25.81736,13.0124 26.44856,12.7532 28.20136,12.6812 C29.98936,12.6068 30.21816,12.8388 30.80856,12.6812 C31.70616,12.4404 32.79496,11.4716 33.57496,8.2124 C32.32536,8.5204 31.35656,8.762 30.80856,8.8996" id="Fill-20" fill="#E6434B"></path>
                <path d="M28.83752,15.866 C30.20552,13.8556 32.34152,13.4948 32.69352,13.442 C29.61272,19.0932 28.41432,20.3964 27.97272,20.2172 C27.45432,20.0068 27.64552,17.6172 28.83752,15.866" id="Fill-22" fill="#E6434B"></path>
                <path d="M17.5672,18.55664 C19.484,18.13584 20.9712,17.39824 21.94,16.82944 C21.3216,17.91264 19.9904,19.84864 17.5672,21.02144 C16.4192,21.57664 14.4504,22.53024 12.552,21.66464 C11.3832,21.13184 10.2264,19.90144 10.4952,19.24704 C10.8704,18.33184 13.6768,19.41104 17.5672,18.55664" id="Fill-24" fill="#E6434B"></path>
                <path d="M2.58128,14.37928 C6.09568,15.97688 6.97248,16.60408 6.89488,16.82968 C6.79808,17.10488 5.33648,16.58568 4.73808,17.29288 C4.09488,18.05288 4.97968,19.60488 4.73808,19.73528 C4.55808,19.83288 3.85488,19.08248 1.84128,16.00648 C1.84128,16.00648 2.02208,15.22408 2.58128,14.37928" id="Fill-26" fill="#E6434B"></path>
                <path d="M1.6,26.88552 C13.2032,24.88552 17.652,27.08152 19.536,29.55752 C21.8984,32.66312 20.8216,36.99752 23.0576,37.72472 C24.9656,38.34392 26.4968,35.43192 32.6936,32.43432 C35.1112,31.26552 38.0296,29.88632 39.2272,30.96232 C40.2704,31.89912 38.836,33.64472 39.2272,36.36712 C39.9688,41.51832 46.1096,42.22392 46.1816,45.98072 C46.2376,48.91672 42.5008,49.19512 40.2912,54.73912 C39.7136,56.18952 38.7504,58.60632 39.2272,61.44232 C40.0776,66.49272 44.7888,68.67432 44,70.22712 C43.1792,71.84152 38.0264,69.60072 36.2608,71.97192 C35.2928,73.27352 35.8472,75.28872 36.2608,76.79752 C36.9664,79.36232 38.536,80.95752 39.2424,81.59352 C40.2528,82.50232 41.3144,82.97352 43.436,83.91672 C46.628,85.33512 48.224,86.04392 49.3552,85.64312 C51.0848,85.03032 50.9696,83.25272 53.5608,81.59352 C54.5376,80.96792 55.456,80.64232 56.0752351,80.46632 L56.0752351,90.64232 C56.076,90.87272 56.0632,91.13112 56.028,91.41192 C56.0016,91.62472 55.9656,91.82152 55.9248,91.99992 L43.6912,91.99992 C43.3312,91.45032 42.7248,90.67112 41.7736,89.99352 C41.5184,89.81112 38.6872,87.83992 36.9272,88.88232 C36.3968,89.19672 36.4376,89.50392 35.7232,90.24952 C34.7808,91.23592 33.7168,91.73512 32.9904,91.99992 L23.4,91.99992 C20.6488,89.97672 20.1968,88.78632 20.3968,88.05352 C20.848,86.39432 24.716,86.78552 25.48,84.58152 C25.836,83.55432 25.4448,82.17112 24.612,81.59352 C23.3416,80.70952 22.0088,82.36632 18.1648,82.84632 C15.5056,83.17832 14.056,82.64632 13.4536,83.59032 C13.232,83.93672 13.3784,84.08872 13.5784,86.44152 C13.772,88.72632 13.712,89.49272 13.5784,90.16152 C13.416,90.96952 13.1504,91.60072 12.9576,91.99992 L1.7496,91.99992 C1.7048,91.79512 1.6,91.32392 1.6,90.79592 C1.6,90.09352 1.6312,64.07832 1.6,26.88552" id="Fill-28" fill="#FFA0A8"></path>
                <path d="M39.70392,23.36752 C35.98312,27.63792 34.54872,31.46672 33.94952,34.27792 C33.57512,36.03472 32.98952,39.91552 31.07192,44.94832 C30.23112,47.15312 29.61592,48.31952 28.67432,48.42432 C27.10872,48.59872 25.03592,45.78912 25.67752,44.46832 C26.03592,43.72912 27.17192,43.60672 28.07512,43.50912 C28.62712,43.44992 32.99192,43.04592 35.74792,46.02672 C37.05672,47.44272 37.11512,48.66192 38.74552,49.46992 C39.64712,49.91712 40.53112,49.99072 41.14312,49.98352" id="Stroke-30" stroke="#021770" stroke-width="2.4" stroke-linecap="round"></path>
                <path d="M42.34144,35.47696 C41.22064,36.09136 39.58784,37.19136 38.26544,39.07296 C37.65824,39.93696 36.44384,41.92496 36.94704,42.42976 C37.43744,42.92416 39.38944,41.82656 40.54384,40.99216 C43.19344,39.07536 44.39664,36.55216 44.61984,36.67536 C44.90624,36.83456 42.40224,40.74016 43.42064,41.83056 C43.97424,42.42336 45.39184,41.99616 46.41824,41.59136" id="Stroke-32" stroke="#021770" stroke-width="2.4" stroke-linecap="round"></path>
                <path d="M17.65,58.84488 C17.2844,57.56248 17.014,55.78408 17.65,53.96728 C18.6108,51.22168 20.9452,50.38888 20.6628,48.94728 C20.4092,47.66088 18.186,46.45208 16.3588,46.79528 C14.7828,47.09128 13.5532,48.53128 9.9028,58.84488 C7.2452,66.35608 6.6108,69.22568 6.3172,72.32888 C6.0092,75.57448 5.5988,79.91208 7.4652,80.79368 C9.0996,81.56488 12.006,79.46008 13.49,77.78088 C14.2716,76.89528 14.7612,76.01288 15.0668,75.34168" id="Stroke-34" stroke="#021770" stroke-width="2.4" stroke-linecap="round"></path>
                <path d="M15.64216,68.8496 C16.61736,66.3528 18.49256,64.8912 20.09336,65.1256 C21.12136,65.2752 22.29336,66.1616 22.27336,66.988 C22.25176,67.8808 20.84856,68.1272 20.66216,69.3952 C20.59016,69.8896 20.70056,70.5504 21.09256,70.9392 C22.08936,71.928 25.02936,71.2944 26.63416,69.5768 C28.48856,67.592 27.44376,65.3496 28.97736,64.4896 C30.49736,63.6368 33.36536,64.8088 33.81016,66.3976 C34.28216,68.08 31.76216,69.2688 32.26536,70.9392 C32.71496,72.4296 35.31576,73.4576 36.80776,72.756 C37.91736,72.2344 37.76376,71.064 38.98856,70.6664 C39.94216,70.3576 41.08776,70.7288 41.80456,71.3024 C42.62776,71.9632 42.47176,72.5624 42.98536,72.756 C43.42616,72.9232 44.40456,72.8048 47.70936,68.6232 C48.60936,67.484 49.82776,65.8584 51.16056,63.7944" id="Stroke-36" stroke="#021770" stroke-width="2.4" stroke-linecap="round"></path>
                <path d="M10.45624,4.98944 C8.43544,6.94704 6.16264,9.80464 6.60024,12.84544 C6.85944,14.64704 7.89704,15.31104 8.95784,17.06144 C9.93944,18.68224 11.18104,21.63344 10.01384,31.07184 C9.19864,37.67184 8.19224,39.45344 7.41304,43.99584 C5.76104,53.62944 8.70664,54.82384 9.42424,71.83744 C9.82024,81.23824 9.04264,83.78224 11.43464,86.84064 C14.97464,91.37024 21.55144,92.02544 25.81624,92.000542 L1.74904,92.000542 C1.54344,91.12224 1.60024,90.97664 1.60024,89.70864 L1.60024,18.56784 C1.57944,18.41264 1.56264,18.23904 1.55624,18.04784 C1.55144,17.94304 1.54744,17.73264 1.56904,17.43104 C1.58904,17.13824 1.62024,16.70464 1.76184,16.15824 C1.84984,15.82064 1.99864,15.37024 2.26104,14.86944 C2.66024,14.30544 3.07624,13.62944 3.45864,12.83824 C4.17704,11.34864 4.52264,9.96704 4.69544,8.89984 C4.76424,8.38864 4.80184,7.95904 4.82504,7.64064 C4.83864,6.80144 4.84904,6.55344 4.81864,6.05424 C4.79064,5.58144 4.57144,5.22624 4.44664,4.98944 L10.45624,4.98944 Z" id="Fill-38" fill="#180000" opacity="0.2"></path>
                <line x1="48" y1="29.6" x2="48" y2="82.4" id="Stroke-40" stroke="#FFFFFF" stroke-width="1.6" opacity="0.4" stroke-linecap="round"></line>
                <path d="M48.8,26.4 C48.8,26.8424 48.4416,27.2 48,27.2 C47.5576,27.2 47.2,26.8424 47.2,26.4 C47.2,25.9584 47.5576,25.6 48,25.6 C48.4416,25.6 48.8,25.9584 48.8,26.4" id="Fill-42" fill="#FFFFFF" opacity="0.4"></path>
            </g>
        </g>
    </g>
</svg>
