<?xml version="1.0" encoding="UTF-8"?>
<svg width="180px" height="180px" viewBox="0 0 180 180" version="1.1" xmlns="http://www.w3.org/2000/svg" xmlns:xlink="http://www.w3.org/1999/xlink">
    <title>sardine</title>
    <defs>
        <polygon id="path-1" points="0.147798083 0.384619311 133.181 0.384619311 133.181 29.557497 0.147798083 29.557497"></polygon>
    </defs>
    <g id="sardine" stroke="none" stroke-width="1" fill="none" fill-rule="evenodd">
        <g id="Group-9">
            <rect id="Rectangle" x="0" y="0" width="180" height="180"></rect>
            <g id="Group-56" transform="translate(14.000000, 68.000000)">
                <g id="Group-3" transform="translate(19.000000, 10.428500)">
                    <mask id="mask-2" fill="white">
                        <use xlink:href="#path-1"></use>
                    </mask>
                    <g id="Clip-2"></g>
                    <path d="M0.9198,14.83885 C0.8963,13.57785 5.8753,11.86235 10.9563,11.75085 C13.6208,11.69235 14.7143,12.11035 17.7193,11.75085 C20.2558,11.44785 22.0878,10.83785 22.8458,10.59285 C29.9008,8.31085 47.0468,4.25685 55.8118,2.64085 C66.7178,0.63035 75.2743,0.43585 77.2743,0.40185 C92.8873,0.13785 104.1613,2.96235 112.4793,5.11135 C125.8743,8.57185 133.5093,12.47535 133.1703,14.22185 C133.0243,14.97435 131.3213,15.70885 131.4983,16.07435 C131.6583,16.40385 133.0788,15.88435 133.1703,16.07435 C133.3618,16.47285 127.7708,20.06585 121.6668,22.79085 C110.9758,27.56435 101.4693,28.44335 93.4098,29.12185 C84.4348,29.87735 77.6623,29.49785 71.3863,29.12185 C68.4258,28.94435 58.3153,28.27035 45.0033,25.80235 C27.8613,22.62335 27.5438,20.57385 20.3748,21.01585 C16.0018,21.28485 12.3123,20.88635 4.9343,20.08885 C4.9343,20.08885 0.1443,19.57135 0.147798083,18.77635 C0.1498,18.17185 3.3028,17.96735 3.3898,17.00085 C3.4698,16.12535 0.9363,15.73485 0.9198,14.83885" id="Fill-1" fill="#180000" opacity="0.2" mask="url(#mask-2)"></path>
                </g>
                <path d="M88.0907,37.54715 C85.9197,38.64615 82.8387,40.68315 80.3482,44.43465 C79.7877,45.27965 79.3172,46.11965 78.9217,46.92865 L78.9217,38.66765 C79.4232,38.87265 80.6697,39.29215 82.1822,38.85315 C83.3402,38.51715 84.1287,37.82915 84.5252,37.42865 L88.0907,37.54715 Z" id="Fill-4" fill="#E2C7B4"></path>
                <path d="M88.0907,37.54715 C85.9197,38.64615 82.8387,40.68315 80.3482,44.43465 C79.7877,45.27965 79.3172,46.11965 78.9217,46.92865 L78.9217,38.66765 C79.4232,38.87265 80.6697,39.29215 82.1822,38.85315 C83.3402,38.51715 84.1287,37.82915 84.5252,37.42865 L88.0907,37.54715 Z" id="Stroke-6" stroke="#231F20"></path>
                <path d="M27.3446,28.9085 C22.1596,31.621 15.6916,34.3175 8.0211,36.111 C5.5781,36.682 3.2291,37.111 0.9941,37.4285 C2.1446,32.276 4.2946,30.018 6.0536,28.9085 C8.9781,27.064 12.9216,27.069 13.6426,24.56 C13.8586,23.806 13.6901,23.1525 13.6426,22.9765 C13.0151,20.6635 9.7586,20.0775 7.2301,18.8955 C5.1591,17.9265 2.4896,16.05 0.0276,12.044 C3.8696,12.8195 7.8576,13.72 11.9736,14.767 C17.4111,16.15 22.5396,17.653 27.3446,19.2145 L27.3446,28.9085 Z" id="Fill-8" fill="#E2C7B4"></path>
                <path d="M27.3446,28.9085 C22.1596,31.621 15.6916,34.3175 8.0211,36.111 C5.5781,36.682 3.2291,37.111 0.9941,37.4285 C2.1446,32.276 4.2946,30.018 6.0536,28.9085 C8.9781,27.064 12.9216,27.069 13.6426,24.56 C13.8586,23.806 13.6901,23.1525 13.6426,22.9765 C13.0151,20.6635 9.7586,20.0775 7.2301,18.8955 C5.1591,17.9265 2.4896,16.05 0.0276,12.044 C3.8696,12.8195 7.8576,13.72 11.9736,14.767 C17.4111,16.15 22.5396,17.653 27.3446,19.2145 L27.3446,28.9085 Z" id="Stroke-10" stroke="#231F20"></path>
                <path d="M27.3446,28.9085 C22.1596,31.621 15.6916,34.3175 8.0211,36.111 C5.5781,36.682 3.2291,37.111 0.9941,37.4285 C2.1446,32.276 9.5111,34.238 11.2701,33.1285 C14.1936,31.284 27.3446,28.9085 27.3446,28.9085" id="Fill-12" fill="#180000" opacity="0.2"></path>
                <path d="M114.6903,34.4285 L114.6903,48.1695 C114.4233,50.095 115.9033,51.6985 117.4578,51.718 C119.0353,51.7375 120.5703,50.1255 120.3028,48.1695 L120.3028,41.942 C120.3398,40.7875 121.2643,39.8595 122.3718,39.8135 C123.5453,39.764 124.5843,40.717 124.6258,41.942 L124.6258,52.88 C124.4648,54.957 125.7558,56.417 126.7328,56.4285678 C127.7178,56.44 129.0593,54.9875 128.9143,52.88 L128.9143,34.4285 L114.6903,34.4285 Z" id="Fill-14" fill="#E4C37F"></path>
                <path d="M114.6903,34.4285 L114.6903,48.1695 C114.4233,50.095 115.9033,51.6985 117.4578,51.718 C119.0353,51.7375 120.5703,50.1255 120.3028,48.1695 L120.3028,41.942 C120.3398,40.7875 121.2643,39.8595 122.3718,39.8135 C123.5453,39.764 124.5843,40.717 124.6258,41.942 L124.6258,52.88 C124.4648,54.957 125.7558,56.417 126.7328,56.4285678 C127.7178,56.44 129.0593,54.9875 128.9143,52.88 L128.9143,34.4285 L114.6903,34.4285 Z" id="Stroke-16" stroke="#231F20"></path>
                <path d="M99.5907,37.9861 C95.1427,37.9861 91.1022,37.7441 87.8562,37.5496 C83.1622,37.2676 73.4847,36.4606 61.4122,34.2226 C53.7387,32.7996 49.4767,31.6161 46.3652,30.7516 C43.1897,29.8701 41.4412,29.3846 38.6787,29.3846 C38.1277,29.3846 37.5477,29.4036 36.9057,29.4431 C35.9797,29.5001 35.0832,29.5276 34.1637,29.5276 C30.7572,29.5276 27.2277,29.1461 21.3807,28.5146 C16.1427,27.9486 16.1462,27.0431 16.1476475,26.7031 C16.1497,26.0646 16.8912,25.8396 17.8292,25.5551 C18.2677,25.4211 19.2957,25.1091 19.3942,24.8736 C19.3347,24.7461 18.7587,24.4521 18.4492,24.2936 C17.7042,23.9136 16.9337,23.5206 16.9197,22.7766 C16.8822,20.7536 23.2302,19.2716 27.4457,19.1796 C27.6287,19.1756 27.8052,19.1736 27.9757,19.1736 C28.7887,19.1736 29.4542,19.2151 30.0977,19.2551 C30.6917,19.2921 31.2522,19.3271 31.8892,19.3271 C32.6172,19.3271 33.3387,19.2811 34.1597,19.1831 C36.5717,18.8946 38.3572,18.3156 39.1202,18.0686 L39.1917,18.0456 C46.3392,15.7341 63.6157,11.6641 72.2212,10.0776 C82.3607,8.2081 90.6657,7.8836 93.7662,7.8301 C94.4542,7.8186 95.1357,7.8131 95.8072,7.8131 C110.7467,7.8131 121.7942,10.6671 129.1042,12.5561 C139.6242,15.2731 150.7007,19.4646 150.1612,22.2456 C150.0647,22.7426 149.6262,23.1421 149.1787,23.4941 C149.3092,23.4736 149.4267,23.4596 149.5307,23.4596 C149.9077,23.4596 150.0622,23.6641 150.1212,23.7861 C150.1867,23.9231 150.1927,24.0816 150.1377,24.2321 C149.7842,25.1961 143.6257,28.8301 138.3707,31.1761 C127.3862,36.0801 117.7197,36.8946 109.9522,37.5486 C106.4552,37.8431 103.0662,37.9861 99.5907,37.9861" id="Fill-18" fill="#C7EAFB"></path>
                <path d="M95.80895,7.31325 C95.13145,7.31325 94.44095,7.31925 93.75745,7.33025 C90.64745,7.38325 82.31395,7.70825 72.13045,9.58575 C63.51295,11.17475 46.20395,15.25225 39.03795,17.57025 L38.96595,17.59325 C38.21745,17.83575 36.46445,18.40425 34.10045,18.68625 C33.29895,18.78225 32.59645,18.82675 31.88895,18.82675 C31.26795,18.82675 30.71445,18.79275 30.12845,18.75625 C29.47695,18.71575 28.80295,18.67375 27.97445,18.67375 C27.80095,18.67375 27.62145,18.67575 27.43395,18.67925 C22.90295,18.77925 16.37395,20.29875 16.41995,22.78575 C16.43945,23.83025 17.42745,24.33425 18.22195,24.73975 C18.27995,24.76925 18.34745,24.80325 18.41795,24.84025 C18.16245,24.93075 17.88145,25.01625 17.68345,25.07625 C16.68445,25.38025 15.65195,25.69425 15.6479382,26.70075 C15.64295,27.92575 17.22795,28.33125 18.85195,28.64125 C20.07495,28.87525 21.27645,29.00625 21.32695,29.01125 C27.19095,29.64525 30.73045,30.02775 34.16245,30.02775 C35.09295,30.02775 36.00045,29.99975 36.93695,29.94225 C37.56795,29.90325 38.13695,29.88425 38.67745,29.88425 C41.37245,29.88425 43.09795,30.36375 46.23045,31.23325 C49.35095,32.09975 53.62495,33.28675 61.32045,34.71375 C73.42945,36.95875 83.12495,37.76675 87.82595,38.04875 C91.07895,38.24325 95.12745,38.48625 99.58995,38.48625 C103.07995,38.48625 106.48345,38.34275 109.99395,38.04675 C117.79845,37.38975 127.51045,36.57275 138.57445,31.63275 C142.16045,30.03175 145.11095,28.35125 146.55045,27.49175 C150.29395,25.25775 150.49745,24.70225 150.60695,24.40475 C150.70895,24.12575 150.69595,23.82925 150.57145,23.56975 C150.52495,23.47275 150.42495,23.30775 150.24245,23.17425 C150.43895,22.92975 150.59045,22.65525 150.65195,22.34075 C150.83295,21.40825 150.43295,19.87475 144.89245,17.32925 C142.14495,16.06675 137.19695,14.13025 129.22995,12.07175 C121.89495,10.17675 110.81045,7.31325 95.80895,7.31325 M95.80895,8.31325 C110.37345,8.31325 121.02745,10.98575 128.97945,13.03975 C142.37445,16.50025 150.00895,20.40425 149.67045,22.15025 C149.52395,22.90275 147.82095,23.63725 147.99845,24.00275 C148.03845,24.08625 148.15945,24.11525 148.31895,24.11525 C148.68795,24.11525 149.26395,23.95975 149.53045,23.95975 C149.60495,23.95975 149.65495,23.97175 149.67045,24.00275 C149.86145,24.40125 144.27095,27.99425 138.16695,30.71975 C127.47595,35.49275 117.96895,36.37175 109.90995,37.05075 C106.12045,37.36925 102.72295,37.48625 99.58995,37.48625 C95.30395,37.48625 91.51195,37.26725 87.88595,37.05075 C84.92545,36.87275 74.81545,36.19875 61.50345,33.73075 C45.91895,30.84125 44.23995,28.88425 38.67745,28.88425 C38.12145,28.88425 37.52695,28.90375 36.87545,28.94425 C35.95445,29.00075 35.06345,29.02775 34.16245,29.02775 C30.78445,29.02775 27.25895,28.64675 21.43445,28.01725 C21.43445,28.01725 16.64445,27.49975 16.6479481,26.70475 C16.64995,26.10025 19.80245,25.89575 19.88995,24.92925 C19.96945,24.05375 17.43645,23.66325 17.41995,22.76725 C17.39645,21.50625 22.37545,19.79075 27.45645,19.67925 C27.63545,19.67575 27.80795,19.67375 27.97445,19.67375 C29.51795,19.67375 30.53895,19.82675 31.88895,19.82675 C32.55245,19.82675 33.29545,19.78975 34.21895,19.67925 C36.75595,19.37625 38.58745,18.76625 39.34545,18.52125 C46.40095,16.23975 63.54695,12.18525 72.31195,10.56925 C83.21745,8.55875 91.77445,8.36475 93.77495,8.33025 C94.46045,8.31875 95.13945,8.31325 95.80895,8.31325" id="Fill-20" fill="#231F20"></path>
                <path d="M149.6703,24.0027 C149.8618,24.4012 144.2708,27.9942 138.1668,30.7197 C127.4758,35.4927 117.9693,36.3717 109.9103,37.0507 C100.9348,37.8057 94.1623,37.4267 87.8863,37.0507 C84.9258,36.8727 74.8153,36.1992 61.5033,33.7307 C44.3613,30.5522 44.0433,28.5022 36.8753,28.9442 C32.5018,29.2132 28.8128,28.8147 21.4343,28.0172 C21.4343,28.0172 16.6443,27.4997 16.6477981,26.7047 C16.6498,26.1002 19.8028,25.8957 19.8898,24.9297 C19.9113,24.6977 32.2783,26.4492 48.9438,28.2582 C51.9518,28.5842 55.2673,30.4252 58.5083,30.7437 C61.9458,31.0822 65.3198,29.8972 68.9098,30.2007 C72.2213,30.4807 78.7043,32.9112 82.0533,33.1392 C90.9413,33.7452 96.6728,31.9602 104.6808,31.9287 C134.7683,31.8092 149.6273,23.9142 149.6703,24.0027" id="Fill-22" fill="#180000" opacity="0.2"></path>
                <path d="M74.74355,10.6082 L73.97155,9.9132 C74.28305,9.8342 79.86705,8.3342 80.99755,3.7367 C81.30155,2.4987 81.20605,1.3492 80.99755,0.4287 L98.44505,9.2957 L74.74355,10.6082 Z" id="Fill-24" fill="#E2C7B4"></path>
                <path d="M74.74355,10.6082 L73.97155,9.9132 C74.28305,9.8342 79.86705,8.3342 80.99755,3.7367 C81.30155,2.4987 81.20605,1.3492 80.99755,0.4287 L98.44505,9.2957 L74.74355,10.6082 Z" id="Stroke-26" stroke="#231F20"></path>
                <path d="M73.97155,9.91285 C74.28305,9.83435 79.86705,8.33435 80.99755,3.73635 C81.30105,2.49885 81.20605,1.34935 80.99755,0.42835 C82.64555,2.14685 84.19405,4.14285 83.61055,5.23485 C83.33555,5.74985 82.81805,5.63035 81.68155,6.23585 C79.53455,7.37935 79.45805,8.82735 77.83355,9.66685 C77.10455,10.04335 75.90505,10.37985 73.97155,9.91285" id="Fill-28" fill="#180000" opacity="0.2"></path>
                <path d="M17.4197171,22.76735 C17.3963,21.50635 22.3753,19.79085 27.4563,19.67935 C30.1208,19.62085 31.2143,20.03885 34.2193,19.67935 C36.7558,19.37635 38.5878,18.76635 39.3458,18.52135 C46.4008,16.23935 63.5468,12.18535 72.3118,10.56935 C83.2178,8.55885 91.7743,8.36435 93.7743,8.33035 C109.3873,8.06635 120.6613,10.89085 128.9793,13.03985 C142.3743,16.50035 150.0093,20.40385 149.6703,22.15035 C149.6003,22.50985 136.1513,16.56435 104.5828,16.74585 C70.1853,16.94385 17.4283,23.23485 17.4197171,22.76735" id="Fill-30" fill="#527693"></path>
                <path d="M141.29335,24.36845 C139.53785,24.36845 138.10985,22.94045 138.10985,21.18495 C138.10985,19.42945 139.53785,18.00145 141.29335,18.00145 C143.04935,18.00145 144.47735,19.42945 144.47735,21.18495 C144.47735,22.94045 143.04935,24.36845 141.29335,24.36845" id="Fill-32" fill="#C7EAFB"></path>
                <path d="M141.29335,17.75125 C139.40035,17.75125 137.85985,19.29175 137.85985,21.18475 C137.85985,23.07825 139.40035,24.61825 141.29335,24.61825 C143.18685,24.61825 144.72735,23.07825 144.72735,21.18475 C144.72735,19.29175 143.18685,17.75125 141.29335,17.75125 M141.29335,18.25125 C142.91385,18.25125 144.22735,19.56475 144.22735,21.18475 C144.22735,22.80475 142.91385,24.11825 141.29335,24.11825 C139.67335,24.11825 138.35985,22.80475 138.35985,21.18475 C138.35985,19.56475 139.67335,18.25125 141.29335,18.25125" id="Fill-34" fill="#231F20"></path>
                <path d="M139.7523,21.4285 C139.9048,22.5505 140.8498,23.242 140.6808,23.4285 C140.5543,23.568 139.9823,23.227 139.9308,23.196 C139.7528,23.09 138.7203,22.4745 138.6808,21.4285 C138.6353,20.2055 139.9833,19.2965 140.1808,19.4285 C140.3463,19.539 139.6008,20.308 139.7523,21.4285" id="Fill-36" fill="#E4C37F"></path>
                <path d="M142.7704,21.33915 C142.7704,22.11865 142.1384,22.74965 141.3599,22.74965 C140.5804,22.74965 139.9489,22.11865 139.9489,21.33915 C139.9489,20.56015 140.5804,19.92865 141.3599,19.92865 C141.5474,19.92865 141.2744,21.03715 141.4379,21.10415 C141.6139,21.17565 142.2249,20.20915 142.3574,20.34165 C142.6124,20.59715 142.7704,20.94965 142.7704,21.33915" id="Fill-38" fill="#000000"></path>
                <path d="M126.68105,65.4285 C122.18105,65.4285 122.18105,64.778 122.18105,64.4285 C122.18105,64.079 122.18105,63.4285 126.68105,63.4285 C131.18105,63.4285 131.18105,64.079 131.18105,64.4285 C131.18105,64.778 131.18105,65.4285 126.68105,65.4285" id="Fill-40" fill="#E4C37F"></path>
                <path d="M126.68105,62.9285 C125.57255,62.9285 124.52405,62.983 123.72905,63.083 C122.96255,63.1785 121.68105,63.3385 121.68105,64.4285 C121.68105,65.5185 122.96255,65.6785 123.72905,65.774 C124.52405,65.874 125.57255,65.9285 126.68105,65.9285 C127.78955,65.9285 128.83805,65.874 129.63305,65.774 C130.39955,65.6785 131.68105,65.5185 131.68105,64.4285 C131.68105,63.3385 130.39955,63.1785 129.63305,63.083 C128.83805,62.983 127.78955,62.9285 126.68105,62.9285 M126.68105,63.9285 C128.89005,63.9285 130.68105,64.152 130.68105,64.4285 C130.68105,64.705 128.89005,64.9285 126.68105,64.9285 C124.47205,64.9285 122.68105,64.705 122.68105,64.4285 C122.68105,64.152 124.47205,63.9285 126.68105,63.9285" id="Fill-42" fill="#231F20"></path>
                <path d="M120.68105,61.9285 C118.92305,61.9285 118.68105,61.568 118.68105,61.1785 C118.68105,60.789 118.92305,60.4285 120.68105,60.4285 C122.43905,60.4285 122.68105,60.789 122.68105,61.1785 C122.68105,61.568 122.43905,61.9285 120.68105,61.9285" id="Fill-44" fill="#E4C37F"></path>
                <path d="M120.68105,59.9285 C119.86955,59.9285 118.18105,59.9285 118.18105,61.1785 C118.18105,62.4285 119.86955,62.4285 120.68105,62.4285 C121.49255,62.4285 123.18105,62.4285 123.18105,61.1785 C123.18105,59.9285 121.49255,59.9285 120.68105,59.9285 M120.68105,60.9285 C121.50905,60.9285 122.18105,61.0405 122.18105,61.1785 C122.18105,61.3165 121.50905,61.4285 120.68105,61.4285 C119.85305,61.4285 119.18105,61.3165 119.18105,61.1785 C119.18105,61.0405 119.85305,60.9285 120.68105,60.9285" id="Fill-46" fill="#231F20"></path>
                <path d="M131.18105,62.4285 C130.60155,62.4285 130.18105,62.113 130.18105,61.6785 C130.18105,61.244 130.60155,60.9285 131.18105,60.9285 C131.76055,60.9285 132.18105,61.244 132.18105,61.6785 C132.18105,62.113 131.76055,62.4285 131.18105,62.4285" id="Fill-48" fill="#E4C37F"></path>
                <path d="M131.18105,60.4285 C130.32605,60.4285 129.68105,60.966 129.68105,61.6785 C129.68105,62.391 130.32605,62.9285 131.18105,62.9285 C132.03605,62.9285 132.68105,62.391 132.68105,61.6785 C132.68105,60.966 132.03605,60.4285 131.18105,60.4285 M131.18105,61.4285 C131.45755,61.4285 131.68105,61.5405 131.68105,61.6785 C131.68105,61.8165 131.45755,61.9285 131.18105,61.9285 C130.90455,61.9285 130.68105,61.8165 130.68105,61.6785 C130.68105,61.5405 130.90455,61.4285 131.18105,61.4285" id="Fill-50" fill="#231F20"></path>
                <path d="M110.7948,11.36355 C110.7948,11.36355 118.1103,11.81255 127.9128,14.76205" id="Stroke-52" stroke="#FFFFFF" opacity="0.69" stroke-linecap="round"></path>
                <path d="M109.2113,11.14235 C109.2113,11.41835 108.9873,11.64235 108.7113,11.64235 C108.4348,11.64235 108.2113,11.41835 108.2113,11.14235 C108.2113,10.86585 108.4348,10.64235 108.7113,10.64235 C108.9873,10.64235 109.2113,10.86585 109.2113,11.14235" id="Fill-54" fill="#FFFFFF" opacity="0.69"></path>
            </g>
        </g>
    </g>
</svg>